<mxfile host="app.diagrams.net" modified="2024-04-29T01:35:06.189Z" agent="Mozilla/5.0 (Windows NT 10.0; Win64; x64) AppleWebKit/537.36 (KHTML, like Gecko) Chrome/124.0.0.0 Safari/537.36" etag="1-H54ulyXKuDpD94X1RZ" version="24.3.1" type="github">
  <diagram id="prtHgNgQTEPvFCAcTncT" name="Page-1">
    <mxGraphModel dx="794" dy="458" grid="1" gridSize="10" guides="1" tooltips="1" connect="1" arrows="1" fold="1" page="1" pageScale="1" pageWidth="827" pageHeight="1169" math="0" shadow="0">
      <root>
        <mxCell id="0" />
        <mxCell id="1" parent="0" />
        <mxCell id="ECZS6urQ88kVA5Ex51Vr-15" value="&lt;span style=&quot;color: rgb(31, 31, 31); font-family: &amp;quot;Google Sans&amp;quot;, arial, sans-serif-medium, sans-serif; font-size: 28px;&quot;&gt;Devices&lt;/span&gt;&lt;br&gt;&lt;div&gt;&lt;font style=&quot;font-size: 32px;&quot;&gt;&lt;br&gt;&lt;/font&gt;&lt;/div&gt;&lt;div&gt;&lt;font style=&quot;font-size: 32px;&quot;&gt;&lt;br&gt;&lt;/font&gt;&lt;/div&gt;&lt;div&gt;&lt;font style=&quot;font-size: 32px;&quot;&gt;&lt;br&gt;&lt;/font&gt;&lt;/div&gt;&lt;div&gt;&lt;font style=&quot;font-size: 32px;&quot;&gt;&lt;br&gt;&lt;/font&gt;&lt;/div&gt;&lt;div&gt;&lt;font style=&quot;font-size: 32px;&quot;&gt;&lt;br&gt;&lt;/font&gt;&lt;/div&gt;" style="rounded=0;whiteSpace=wrap;html=1;fillColor=#dae8fc;strokeColor=#6c8ebf;align=left;" vertex="1" parent="1">
          <mxGeometry x="430" y="15" width="400" height="250" as="geometry" />
        </mxCell>
        <mxCell id="ECZS6urQ88kVA5Ex51Vr-16" value="&lt;span style=&quot;color: rgb(31, 31, 31); font-family: &amp;quot;Google Sans&amp;quot;, arial, sans-serif-medium, sans-serif; font-size: 28px;&quot;&gt;Back-end&lt;/span&gt;&lt;br&gt;&lt;div&gt;&lt;br&gt;&lt;/div&gt;&lt;div&gt;&lt;font style=&quot;font-size: 32px;&quot;&gt;&lt;br&gt;&lt;/font&gt;&lt;/div&gt;&lt;div&gt;&lt;font style=&quot;font-size: 32px;&quot;&gt;&lt;br&gt;&lt;/font&gt;&lt;/div&gt;" style="rounded=0;whiteSpace=wrap;html=1;fillColor=#d5e8d4;strokeColor=#82b366;align=left;" vertex="1" parent="1">
          <mxGeometry x="20" y="330" width="780" height="140" as="geometry" />
        </mxCell>
        <mxCell id="ECZS6urQ88kVA5Ex51Vr-14" value="&lt;span style=&quot;color: rgb(31, 31, 31); font-family: &amp;quot;Google Sans&amp;quot;, arial, sans-serif-medium, sans-serif; font-size: 28px;&quot;&gt;Front-end&lt;/span&gt;&lt;br&gt;&lt;div&gt;&lt;font style=&quot;font-size: 32px;&quot;&gt;&lt;br&gt;&lt;/font&gt;&lt;/div&gt;&lt;div&gt;&lt;font style=&quot;font-size: 32px;&quot;&gt;&lt;br&gt;&lt;/font&gt;&lt;/div&gt;&lt;div&gt;&lt;font style=&quot;font-size: 32px;&quot;&gt;&lt;br&gt;&lt;/font&gt;&lt;/div&gt;&lt;div&gt;&lt;font style=&quot;font-size: 32px;&quot;&gt;&lt;br&gt;&lt;/font&gt;&lt;/div&gt;&lt;div&gt;&lt;font style=&quot;font-size: 32px;&quot;&gt;&lt;br&gt;&lt;/font&gt;&lt;/div&gt;" style="rounded=0;whiteSpace=wrap;html=1;fillColor=#fff2cc;strokeColor=#d6b656;align=left;" vertex="1" parent="1">
          <mxGeometry x="14" y="15" width="400" height="250" as="geometry" />
        </mxCell>
        <mxCell id="ECZS6urQ88kVA5Ex51Vr-11" value="" style="edgeStyle=orthogonalEdgeStyle;rounded=0;orthogonalLoop=1;jettySize=auto;html=1;" edge="1" parent="1" source="ECZS6urQ88kVA5Ex51Vr-1" target="ECZS6urQ88kVA5Ex51Vr-10">
          <mxGeometry relative="1" as="geometry" />
        </mxCell>
        <mxCell id="ECZS6urQ88kVA5Ex51Vr-12" value="&lt;span style=&quot;color: rgb(17, 17, 17); font-family: -apple-system, BlinkMacSystemFont, &amp;quot;Segoe UI&amp;quot;, Roboto, Helvetica, Arial, sans-serif, &amp;quot;Apple Color Emoji&amp;quot;, &amp;quot;Segoe UI Emoji&amp;quot;, &amp;quot;Segoe UI Symbol&amp;quot;; font-size: 16px; text-align: start; text-wrap: wrap; background-color: rgb(253, 253, 253);&quot;&gt;Publisher&lt;/span&gt;" style="edgeLabel;html=1;align=center;verticalAlign=middle;resizable=0;points=[];" vertex="1" connectable="0" parent="ECZS6urQ88kVA5Ex51Vr-11">
          <mxGeometry x="-0.2103" y="-3" relative="1" as="geometry">
            <mxPoint x="10" y="7" as="offset" />
          </mxGeometry>
        </mxCell>
        <mxCell id="ECZS6urQ88kVA5Ex51Vr-1" value="Web server" style="ellipse;shape=cloud;whiteSpace=wrap;html=1;" vertex="1" parent="1">
          <mxGeometry x="200" y="360" width="120" height="80" as="geometry" />
        </mxCell>
        <mxCell id="ECZS6urQ88kVA5Ex51Vr-3" style="edgeStyle=orthogonalEdgeStyle;rounded=0;orthogonalLoop=1;jettySize=auto;html=1;" edge="1" parent="1" source="ECZS6urQ88kVA5Ex51Vr-6" target="ECZS6urQ88kVA5Ex51Vr-1">
          <mxGeometry relative="1" as="geometry">
            <mxPoint x="250" y="170" as="sourcePoint" />
          </mxGeometry>
        </mxCell>
        <mxCell id="ECZS6urQ88kVA5Ex51Vr-5" style="edgeStyle=orthogonalEdgeStyle;rounded=0;orthogonalLoop=1;jettySize=auto;html=1;exitX=1;exitY=0.5;exitDx=0;exitDy=0;" edge="1" parent="1" source="ECZS6urQ88kVA5Ex51Vr-4" target="ECZS6urQ88kVA5Ex51Vr-6">
          <mxGeometry relative="1" as="geometry">
            <mxPoint x="170" y="170" as="targetPoint" />
          </mxGeometry>
        </mxCell>
        <mxCell id="ECZS6urQ88kVA5Ex51Vr-4" value="User upload image and&amp;nbsp;use features" style="rounded=0;whiteSpace=wrap;html=1;" vertex="1" parent="1">
          <mxGeometry x="20" y="110" width="120" height="60" as="geometry" />
        </mxCell>
        <mxCell id="ECZS6urQ88kVA5Ex51Vr-6" value="Web client" style="swimlane;fontStyle=0;childLayout=stackLayout;horizontal=1;startSize=30;horizontalStack=0;resizeParent=1;resizeParentMax=0;resizeLast=0;collapsible=1;marginBottom=0;whiteSpace=wrap;html=1;" vertex="1" parent="1">
          <mxGeometry x="175" y="80" width="170" height="120" as="geometry">
            <mxRectangle x="180" y="80" width="100" height="30" as="alternateBounds" />
          </mxGeometry>
        </mxCell>
        <mxCell id="ECZS6urQ88kVA5Ex51Vr-7" value="display image" style="text;strokeColor=none;fillColor=none;align=left;verticalAlign=middle;spacingLeft=4;spacingRight=4;overflow=hidden;points=[[0,0.5],[1,0.5]];portConstraint=eastwest;rotatable=0;whiteSpace=wrap;html=1;" vertex="1" parent="ECZS6urQ88kVA5Ex51Vr-6">
          <mxGeometry y="30" width="170" height="30" as="geometry" />
        </mxCell>
        <mxCell id="ECZS6urQ88kVA5Ex51Vr-8" value="display animation" style="text;strokeColor=none;fillColor=none;align=left;verticalAlign=middle;spacingLeft=4;spacingRight=4;overflow=hidden;points=[[0,0.5],[1,0.5]];portConstraint=eastwest;rotatable=0;whiteSpace=wrap;html=1;" vertex="1" parent="ECZS6urQ88kVA5Ex51Vr-6">
          <mxGeometry y="60" width="170" height="30" as="geometry" />
        </mxCell>
        <mxCell id="ECZS6urQ88kVA5Ex51Vr-9" value="image process ans display" style="text;strokeColor=none;fillColor=none;align=left;verticalAlign=middle;spacingLeft=4;spacingRight=4;overflow=hidden;points=[[0,0.5],[1,0.5]];portConstraint=eastwest;rotatable=0;whiteSpace=wrap;html=1;" vertex="1" parent="ECZS6urQ88kVA5Ex51Vr-6">
          <mxGeometry y="90" width="170" height="30" as="geometry" />
        </mxCell>
        <mxCell id="ECZS6urQ88kVA5Ex51Vr-28" style="edgeStyle=orthogonalEdgeStyle;rounded=0;orthogonalLoop=1;jettySize=auto;html=1;" edge="1" parent="1" source="ECZS6urQ88kVA5Ex51Vr-10" target="ECZS6urQ88kVA5Ex51Vr-22">
          <mxGeometry relative="1" as="geometry" />
        </mxCell>
        <mxCell id="ECZS6urQ88kVA5Ex51Vr-29" style="edgeStyle=orthogonalEdgeStyle;rounded=0;orthogonalLoop=1;jettySize=auto;html=1;" edge="1" parent="1" source="ECZS6urQ88kVA5Ex51Vr-10" target="ECZS6urQ88kVA5Ex51Vr-25">
          <mxGeometry relative="1" as="geometry" />
        </mxCell>
        <mxCell id="ECZS6urQ88kVA5Ex51Vr-10" value="MQTT server" style="rounded=0;whiteSpace=wrap;html=1;" vertex="1" parent="1">
          <mxGeometry x="430" y="370" width="120" height="60" as="geometry" />
        </mxCell>
        <mxCell id="ECZS6urQ88kVA5Ex51Vr-17" value="&lt;span class=&quot;fontstyle0&quot;&gt;M5Core2s&lt;/span&gt; &lt;div&gt;&lt;br/&gt;&lt;/div&gt;" style="rounded=0;whiteSpace=wrap;html=1;" vertex="1" parent="1">
          <mxGeometry x="570" y="30" width="70" height="70" as="geometry" />
        </mxCell>
        <mxCell id="ECZS6urQ88kVA5Ex51Vr-18" value="&lt;span class=&quot;fontstyle0&quot;&gt;M5Core2s&lt;/span&gt; &lt;div&gt;&lt;br/&gt;&lt;/div&gt;" style="rounded=0;whiteSpace=wrap;html=1;" vertex="1" parent="1">
          <mxGeometry x="570" y="110" width="70" height="70" as="geometry" />
        </mxCell>
        <mxCell id="ECZS6urQ88kVA5Ex51Vr-26" style="edgeStyle=orthogonalEdgeStyle;rounded=0;orthogonalLoop=1;jettySize=auto;html=1;" edge="1" parent="1" source="ECZS6urQ88kVA5Ex51Vr-10" target="ECZS6urQ88kVA5Ex51Vr-19">
          <mxGeometry relative="1" as="geometry" />
        </mxCell>
        <mxCell id="ECZS6urQ88kVA5Ex51Vr-27" value="&lt;span style=&quot;color: rgb(17, 17, 17); font-family: -apple-system, BlinkMacSystemFont, &amp;quot;Segoe UI&amp;quot;, Roboto, Helvetica, Arial, sans-serif, &amp;quot;Apple Color Emoji&amp;quot;, &amp;quot;Segoe UI Emoji&amp;quot;, &amp;quot;Segoe UI Symbol&amp;quot;; font-size: 16px; text-align: start; text-wrap: wrap; background-color: rgb(253, 253, 253);&quot;&gt;Subscriber&lt;/span&gt;" style="edgeLabel;html=1;align=center;verticalAlign=middle;resizable=0;points=[];" vertex="1" connectable="0" parent="ECZS6urQ88kVA5Ex51Vr-26">
          <mxGeometry x="-0.0569" y="-1" relative="1" as="geometry">
            <mxPoint x="-1" y="57" as="offset" />
          </mxGeometry>
        </mxCell>
        <mxCell id="ECZS6urQ88kVA5Ex51Vr-19" value="&lt;span class=&quot;fontstyle0&quot;&gt;M5Core2s&lt;/span&gt; &lt;div&gt;&lt;br/&gt;&lt;/div&gt;" style="rounded=0;whiteSpace=wrap;html=1;" vertex="1" parent="1">
          <mxGeometry x="570" y="190" width="70" height="70" as="geometry" />
        </mxCell>
        <mxCell id="ECZS6urQ88kVA5Ex51Vr-20" value="&lt;span class=&quot;fontstyle0&quot;&gt;M5Core2s&lt;/span&gt; &lt;div&gt;&lt;br/&gt;&lt;/div&gt;" style="rounded=0;whiteSpace=wrap;html=1;" vertex="1" parent="1">
          <mxGeometry x="650" y="30" width="70" height="70" as="geometry" />
        </mxCell>
        <mxCell id="ECZS6urQ88kVA5Ex51Vr-21" value="&lt;span class=&quot;fontstyle0&quot;&gt;M5Core2s&lt;/span&gt; &lt;div&gt;&lt;br/&gt;&lt;/div&gt;" style="rounded=0;whiteSpace=wrap;html=1;" vertex="1" parent="1">
          <mxGeometry x="650" y="110" width="70" height="70" as="geometry" />
        </mxCell>
        <mxCell id="ECZS6urQ88kVA5Ex51Vr-22" value="&lt;span class=&quot;fontstyle0&quot;&gt;M5Core2s&lt;/span&gt; &lt;div&gt;&lt;br/&gt;&lt;/div&gt;" style="rounded=0;whiteSpace=wrap;html=1;" vertex="1" parent="1">
          <mxGeometry x="650" y="190" width="70" height="70" as="geometry" />
        </mxCell>
        <mxCell id="ECZS6urQ88kVA5Ex51Vr-23" value="&lt;span class=&quot;fontstyle0&quot;&gt;M5Core2s&lt;/span&gt; &lt;div&gt;&lt;br/&gt;&lt;/div&gt;" style="rounded=0;whiteSpace=wrap;html=1;" vertex="1" parent="1">
          <mxGeometry x="730" y="30" width="70" height="70" as="geometry" />
        </mxCell>
        <mxCell id="ECZS6urQ88kVA5Ex51Vr-24" value="&lt;span class=&quot;fontstyle0&quot;&gt;M5Core2s&lt;/span&gt; &lt;div&gt;&lt;br/&gt;&lt;/div&gt;" style="rounded=0;whiteSpace=wrap;html=1;" vertex="1" parent="1">
          <mxGeometry x="730" y="110" width="70" height="70" as="geometry" />
        </mxCell>
        <mxCell id="ECZS6urQ88kVA5Ex51Vr-25" value="&lt;span class=&quot;fontstyle0&quot;&gt;M5Core2s&lt;/span&gt; &lt;div&gt;&lt;br/&gt;&lt;/div&gt;" style="rounded=0;whiteSpace=wrap;html=1;" vertex="1" parent="1">
          <mxGeometry x="730" y="190" width="70" height="70" as="geometry" />
        </mxCell>
        <mxCell id="ECZS6urQ88kVA5Ex51Vr-32" value="&lt;font style=&quot;font-size: 32px;&quot;&gt;...&lt;/font&gt;" style="text;html=1;align=center;verticalAlign=middle;whiteSpace=wrap;rounded=0;" vertex="1" parent="1">
          <mxGeometry x="770" y="290" width="60" height="30" as="geometry" />
        </mxCell>
        <mxCell id="ECZS6urQ88kVA5Ex51Vr-36" value="" style="endArrow=classic;startArrow=classic;html=1;rounded=0;entryX=0.25;entryY=1;entryDx=0;entryDy=0;dashed=1;" edge="1" parent="1" source="ECZS6urQ88kVA5Ex51Vr-16" target="ECZS6urQ88kVA5Ex51Vr-15">
          <mxGeometry width="50" height="50" relative="1" as="geometry">
            <mxPoint x="440" y="250" as="sourcePoint" />
            <mxPoint x="490" y="200" as="targetPoint" />
          </mxGeometry>
        </mxCell>
        <mxCell id="ECZS6urQ88kVA5Ex51Vr-37" value="&lt;font style=&quot;font-size: 30px;&quot;&gt;WiFi&lt;/font&gt;" style="edgeLabel;html=1;align=center;verticalAlign=middle;resizable=0;points=[];" vertex="1" connectable="0" parent="ECZS6urQ88kVA5Ex51Vr-36">
          <mxGeometry x="0.0241" y="-3" relative="1" as="geometry">
            <mxPoint x="-44" y="-8" as="offset" />
          </mxGeometry>
        </mxCell>
      </root>
    </mxGraphModel>
  </diagram>
</mxfile>
